<?xml version="1.0" encoding="UTF-8" standalone="no" ?>
<!DOCTYPE svg PUBLIC "-//W3C//DTD SVG 1.1//EN" "http://www.w3.org/Graphics/SVG/1.1/DTD/svg11.dtd">
<svg xmlns="http://www.w3.org/2000/svg" xmlns:xlink="http://www.w3.org/1999/xlink" version="1.1" width="1024" height="1024" viewBox="0 0 1024 1024" xml:space="preserve">
<desc>Created with Fabric.js 2.4.6</desc>
<defs>
</defs>
<rect x="0" y="0" width="100%" height="100%" fill="rgb(255,255,255)"></rect>
<g transform="matrix(1.57 0 0 1 512 512)" id="background-logo"  >
<rect style="stroke: none; stroke-width: 1; stroke-dasharray: none; stroke-linecap: butt; stroke-dashoffset: 0; stroke-linejoin: miter; stroke-miterlimit: 10; fill: rgb(255,255,255); fill-rule: nonzero; opacity: 1;"  x="-325" y="-512" rx="0" ry="0" width="650" height="1024" />
</g>
<g transform="matrix(1.57 0 0 1.57 512 412.4)" style="" id="logo-logo"  >
	<g transform="matrix(0.03 0 0 -0.03 0.02 28.72)" id="logo-logo"  >
<path style="stroke: none; stroke-width: 1; stroke-dasharray: none; stroke-linecap: butt; stroke-dashoffset: 0; stroke-linejoin: miter; stroke-miterlimit: 10; fill: rgb(67,66,68); fill-rule: nonzero; opacity: 1;"  transform=" translate(-6600.01, -5645.09)" d="m 11147.1 7382.64 c -43.4 6.98 -1065.5 135.26 -2148.36 -967 c -194.56 -197.67 -368.58 -440.68 -552.68 -698.03 c -472.46 -659.65 -961.2 -1342.18 -1846.42 -1342.18 c -885.23 0 -1373.57 682.53 -1846.03 1342.18 c -184.1 257.35 -358.12 500.36 -552.68 698.41 C 3119.2 7517.52 2096.39 7390 2052.2 7382.64 c -129.45 -17.83 -218.98 -136.82 -202.31 -266.66 c 17.05 -129.45 137.98 -218.2 266.27 -205.02 c 13.23 1.69 150.12 15.45 365.38 -25.09 V 5642.93 h 476.26 v 1089.45 c 268.23 -121.16 579.38 -320.15 903.61 -650.06 c 168.2 -171.7 331.76 -399.98 505.01 -641.83 c 491.45 -686.79 1103.44 -1541.01 2233.22 -1541.01 c 1130.18 0 1742.16 854.22 2233.6 1541.01 c 173.26 241.85 336.81 470.13 505.02 641.44 c 324.02 329.87 634.94 528.65 902.94 649.66 V 5642.93 h 476.2 v 1242.16 c 214.9 40.54 351.3 27.03 363.8 26.25 c 129.4 -23.63 250.8 72.1 268.6 202.71 c 18.2 130.22 -72.5 250.76 -202.7 268.59" stroke-linecap="round" />
</g>
	<g transform="matrix(0.03 0 0 -0.03 0 29.21)" id="logo-logo"  >
<path style="stroke: none; stroke-width: 1; stroke-dasharray: none; stroke-linecap: butt; stroke-dashoffset: 0; stroke-linejoin: miter; stroke-miterlimit: 10; fill: rgb(126,210,180); fill-rule: nonzero; opacity: 1;"  transform=" translate(-6599.5, -5630.88)" d="m 11349.8 4162.11 c -17.8 130.62 -141.1 226.35 -268.6 202.7 c -3.6 -0.15 -141.7 -16.06 -363.8 25.86 v 1252.26 h -476.2 V 4544.44 c -268.07 121.08 -578.94 319.63 -902.94 649.4 c -168.21 171.69 -331.76 399.98 -505.02 641.83 c -491.44 686.79 -1103.42 1541 -2233.6 1541 c -1129.78 0 -1741.77 -854.21 -2233.22 -1541 C 4193.17 5593.82 4029.61 5365.53 3861.41 5194.23 C 3537.22 4864.2 3226.02 4665.34 2957.8 4544.3 v 1084.91 h -476.26 v -1238.3 c -214.72 -40.48 -350.99 -27.02 -363.45 -26.1 c -127.13 21.71 -250.77 -72.47 -268.98 -202.7 c -17.83 -130.22 72.86 -250.77 203.09 -268.59 c 44.57 -8.14 1066.62 -135.66 2148.73 967 c 194.56 197.67 368.58 440.68 552.68 698.03 c 472.46 659.66 960.8 1342.18 1846.03 1342.18 c 885.22 0 1373.96 -682.52 1846.42 -1342.18 c 184.1 -257.35 358.12 -500.36 552.68 -698.42 c 862.36 -877.85 1687.56 -974.36 2008.46 -974.36 c 82.1 0 131 6.2 139.9 7.75 c 130.2 17.82 220.9 138.37 202.7 268.59" stroke-linecap="round" />
</g>
	<g transform="matrix(0.03 0 0 -0.03 0.01 -47.77)" id="logo-logo"  >
<path style="stroke: none; stroke-width: 1; stroke-dasharray: none; stroke-linecap: butt; stroke-dashoffset: 0; stroke-linejoin: miter; stroke-miterlimit: 10; fill: rgb(67,66,68); fill-rule: nonzero; opacity: 1;"  transform=" translate(-6599.84, -7845.47)" d="m 5339.45 6952.83 c -158.57 191.27 -400.18 548.19 -400.18 950.33 c 0 291.45 172.07 679.03 1660.37 679.03 c 1488.29 0 1660.77 -387.58 1660.77 -679.03 c 0 -402.16 -241.66 -759.09 -400.21 -950.35 c 126.94 -97.25 244.67 -205.08 353.8 -320 c 204.23 242.51 522.36 709.95 522.36 1270.35 c 0 1154.97 -1608.06 1154.97 -2136.72 1154.97 c -528.27 0 -2136.32 0 -2136.32 -1154.97 c 0 -560.39 318.11 -1027.82 522.34 -1270.33 c 109.14 114.93 226.86 222.75 353.79 320" stroke-linecap="round" />
</g>
</g>
<g transform="matrix(1.57 0 0 1.57 511.8 680.43)"  >
<path style="stroke: none; stroke-width: 1; stroke-dasharray: none; stroke-linecap: butt; stroke-dashoffset: 0; stroke-linejoin: miter; stroke-miterlimit: 10; fill: rgb(67,66,68); fill-rule: nonzero; opacity: ;"  transform=" translate(-120, 29.64)" d="M 4.03 -14.24 L 4.03 -14.24 L 4.03 -45.05 Q 4.03 -49.52 6.49 -53.04 L 6.49 -53.04 Q 8.82 -56.52 12.74 -58.14 L 12.74 -58.14 Q 15.23 -59.29 18.31 -59.29 L 18.31 -59.29 Q 22.7 -59.29 26.26 -56.87 L 26.26 -56.87 Q 29.82 -54.54 31.44 -50.63 L 31.44 -50.63 Q 32.55 -47.94 32.55 -45.25 L 32.55 -45.25 Q 32.55 -43.43 31.38 -42.24 Q 30.22 -41.05 28.6 -41.05 L 28.6 -41.05 Q 26.89 -41.05 25.73 -42.24 Q 24.56 -43.43 24.56 -45.05 L 24.56 -45.05 Q 24.56 -47.07 23.49 -48.61 L 23.49 -48.61 Q 22.43 -50.15 20.72 -50.86 L 20.72 -50.86 Q 19.58 -51.34 18.31 -51.34 L 18.31 -51.34 Q 16.53 -51.34 14.83 -50.31 L 14.83 -50.31 Q 13.09 -49.16 12.54 -47.46 L 12.54 -47.46 Q 11.98 -46.39 11.98 -45.05 L 11.98 -45.05 L 11.98 -14.24 Q 11.98 -12.38 13.13 -10.76 L 13.13 -10.76 Q 14.2 -9.22 15.86 -8.5 L 15.86 -8.5 Q 16.93 -8.03 18.31 -8.03 L 18.31 -8.03 Q 20.25 -8.03 21.79 -9.06 L 21.79 -9.06 Q 23.26 -9.97 24.05 -11.83 L 24.05 -11.83 Q 24.52 -13.05 24.56 -14.24 L 24.56 -14.24 Q 24.56 -15.86 25.73 -17.05 Q 26.89 -18.23 28.6 -18.23 L 28.6 -18.23 Q 30.22 -18.23 31.38 -17.05 Q 32.55 -15.86 32.55 -14.24 L 32.55 -14.24 Q 32.55 -12.14 31.92 -10.13 Q 31.28 -8.11 30.14 -6.33 L 30.14 -6.33 Q 27.8 -2.77 23.81 -1.15 L 23.81 -1.15 Q 21.12 0 18.31 0 L 18.31 0 Q 14.12 0 10.28 -2.41 L 10.28 -2.41 Q 6.8 -4.75 5.18 -8.74 L 5.18 -8.74 Q 4.03 -11.43 4.03 -14.24 Z M 38.92 -3.96 L 38.92 -3.96 L 38.92 -43.74 Q 38.92 -46.08 39.61 -48.31 Q 40.3 -50.55 41.61 -52.4 L 41.61 -52.4 Q 44.22 -56.36 48.49 -58.06 L 48.49 -58.06 Q 51.42 -59.29 54.58 -59.29 L 54.58 -59.29 Q 59.44 -59.29 63.32 -56.64 L 63.32 -56.64 Q 67.2 -54.03 68.9 -49.83 L 68.9 -49.83 Q 70.2 -46.75 70.2 -43.74 L 70.2 -43.74 L 70.2 -3.96 Q 70.2 -2.33 69.02 -1.17 Q 67.83 0 66.13 0 L 66.13 0 Q 64.51 0 63.34 -1.17 Q 62.17 -2.33 62.17 -3.96 L 62.17 -3.96 L 62.17 -20.33 Q 62.17 -20.96 61.78 -21.38 Q 61.38 -21.79 60.71 -21.79 L 60.71 -21.79 L 48.41 -21.79 Q 47.78 -21.79 47.36 -21.38 Q 46.95 -20.96 46.95 -20.33 L 46.95 -20.33 L 46.95 -3.96 Q 46.95 -2.33 45.78 -1.17 Q 44.61 0 42.91 0 L 42.91 0 Q 41.29 0 40.1 -1.17 Q 38.92 -2.33 38.92 -3.96 Z M 46.95 -43.74 L 46.95 -31.17 Q 46.95 -30.53 47.36 -30.18 Q 47.78 -29.82 48.41 -29.82 L 48.41 -29.82 L 60.71 -29.82 Q 61.34 -29.82 61.76 -30.18 Q 62.17 -30.53 62.17 -31.17 L 62.17 -31.17 L 62.17 -43.74 Q 62.17 -46.16 60.87 -47.94 L 60.87 -47.94 Q 59.64 -49.79 57.55 -50.7 L 57.55 -50.7 Q 56 -51.34 54.58 -51.34 L 54.58 -51.34 Q 52.4 -51.34 50.27 -50.07 L 50.27 -50.07 Q 48.41 -48.85 47.5 -46.67 L 47.5 -46.67 Q 47.18 -46.04 47.07 -45.25 Q 46.95 -44.46 46.95 -43.74 L 46.95 -43.74 Z M 77.88 -45.05 L 77.88 -45.05 Q 77.88 -47.22 78.53 -49.24 Q 79.18 -51.26 80.33 -53.04 L 80.33 -53.04 Q 82.94 -56.6 86.62 -58.14 L 86.62 -58.14 Q 89.11 -59.29 92.15 -59.29 L 92.15 -59.29 Q 96.62 -59.29 100.14 -56.87 L 100.14 -56.87 Q 103.54 -54.54 105.32 -50.63 L 105.32 -50.63 Q 106.39 -48.01 106.39 -45.05 L 106.39 -45.05 Q 106.39 -43.43 105.22 -42.24 Q 104.06 -41.05 102.44 -41.05 L 102.44 -41.05 Q 100.81 -41.05 99.63 -42.24 Q 98.44 -43.43 98.44 -45.05 L 98.44 -45.05 Q 98.44 -46.91 97.41 -48.61 L 97.41 -48.61 Q 96.27 -50.15 94.57 -50.86 L 94.57 -50.86 Q 93.42 -51.34 92.15 -51.34 L 92.15 -51.34 Q 92.07 -51.34 92.03 -51.34 L 92.03 -51.34 Q 90.22 -51.34 88.63 -50.23 L 88.63 -50.23 Q 87.09 -49.16 86.38 -47.46 L 86.38 -47.46 Q 85.9 -46.31 85.9 -45.05 L 85.9 -45.05 Q 85.9 -43.58 86.46 -42.36 L 86.46 -42.36 Q 86.93 -40.97 88.16 -39.35 L 88.16 -39.35 Q 89.15 -37.97 90.77 -36.41 Q 92.39 -34.84 94.8 -32.71 L 94.8 -32.71 Q 95.87 -31.8 97.12 -30.73 Q 98.36 -29.66 99.59 -28.36 L 99.59 -28.36 Q 100.89 -27.05 101.82 -25.89 Q 102.75 -24.72 103.54 -23.57 L 103.54 -23.57 Q 104.85 -21.63 105.4 -19.93 L 105.4 -19.93 Q 106.55 -17.01 106.55 -14.24 L 106.55 -14.24 Q 106.55 -9.93 104.06 -6.33 L 104.06 -6.33 Q 101.72 -2.93 97.81 -1.15 L 97.81 -1.15 Q 95.04 0 92.31 0 L 92.31 0 Q 87.92 0 84.28 -2.49 L 84.28 -2.49 Q 80.8 -4.83 79.1 -8.74 L 79.1 -8.74 Q 78.03 -11.35 78.03 -14.24 L 78.03 -14.24 Q 78.03 -15.94 79.22 -17.13 Q 80.41 -18.31 82.03 -18.31 L 82.03 -18.31 Q 83.65 -18.31 84.82 -17.13 Q 85.98 -15.94 85.98 -14.24 L 85.98 -14.24 Q 85.98 -12.46 87.05 -10.76 L 87.05 -10.76 Q 88.2 -9.22 89.78 -8.5 L 89.78 -8.5 Q 91.01 -8.03 92.31 -8.03 L 92.31 -8.03 Q 94.25 -8.03 95.79 -9.06 L 95.79 -9.06 Q 97.33 -10.2 98.05 -11.83 L 98.05 -11.83 Q 98.52 -13.05 98.52 -14.32 L 98.52 -14.32 Q 98.52 -15.78 97.97 -17.01 L 97.97 -17.01 Q 97.49 -18.39 96.35 -19.93 L 96.35 -19.93 Q 95.28 -21.32 93.72 -22.94 Q 92.15 -24.56 89.62 -26.66 L 89.62 -26.66 Q 88.08 -28.04 86.5 -29.45 Q 84.92 -30.85 83.53 -32.47 L 83.53 -32.47 Q 80.37 -35.87 79.02 -39.35 L 79.02 -39.35 Q 77.88 -42.28 77.88 -45.05 Z M 113.99 -4.03 L 113.99 -4.03 L 113.99 -55.33 Q 113.99 -56.95 115.15 -58.12 Q 116.32 -59.29 117.94 -59.29 L 117.94 -59.29 Q 119.56 -59.29 120.73 -58.12 Q 121.9 -56.95 121.9 -55.33 L 121.9 -55.33 L 121.9 -4.03 Q 121.9 -2.33 120.73 -1.17 Q 119.56 0 117.94 0 L 117.94 0 Q 116.32 0 115.15 -1.17 Q 113.99 -2.33 113.99 -4.03 Z M 129.81 -3.96 L 129.81 -3.96 L 129.81 -45.05 Q 129.81 -49.52 132.26 -53.04 L 132.26 -53.04 Q 134.59 -56.52 138.55 -58.14 L 138.55 -58.14 Q 139.85 -58.77 141.24 -59.03 Q 142.62 -59.29 144.08 -59.29 L 144.08 -59.29 Q 148.47 -59.29 152.11 -56.87 L 152.11 -56.87 Q 153.42 -56.08 154.37 -55.02 L 154.37 -55.02 Q 156.3 -57.03 159.15 -58.14 L 159.15 -58.14 Q 160.46 -58.77 161.82 -59.03 Q 163.19 -59.29 164.65 -59.29 L 164.65 -59.29 Q 169.04 -59.29 172.68 -56.87 L 172.68 -56.87 Q 176.16 -54.54 177.78 -50.63 L 177.78 -50.63 Q 178.93 -47.86 178.89 -45.05 L 178.89 -45.05 L 178.89 -19.85 L 178.89 -3.96 Q 178.89 -2.33 177.72 -1.17 Q 176.55 0 174.85 0 L 174.85 0 Q 173.23 0 172.07 -1.17 Q 170.9 -2.33 170.9 -3.96 L 170.9 -3.96 L 170.98 -19.85 L 170.98 -45.05 Q 170.98 -46.99 169.83 -48.61 L 169.83 -48.61 Q 168.76 -50.15 167.06 -50.86 L 167.06 -50.86 Q 165.92 -51.34 164.65 -51.34 L 164.65 -51.34 Q 162.87 -51.34 161.17 -50.31 L 161.17 -50.31 Q 159.47 -49.16 158.92 -47.46 L 158.92 -47.46 Q 158.44 -46.31 158.4 -45.05 L 158.4 -45.05 L 158.4 -3.96 Q 158.4 -2.33 157.23 -1.17 Q 156.07 0 154.37 0 L 154.37 0 Q 152.75 0 151.56 -1.17 Q 150.37 -2.33 150.37 -3.96 L 150.37 -3.96 L 150.37 -45.05 Q 150.37 -46.99 149.26 -48.61 L 149.26 -48.61 Q 148.2 -50.15 146.5 -50.86 L 146.5 -50.86 Q 145.35 -51.34 144.08 -51.34 L 144.08 -51.34 Q 142.3 -51.34 140.6 -50.31 L 140.6 -50.31 Q 138.9 -49.16 138.31 -47.46 L 138.31 -47.46 Q 137.83 -46.31 137.83 -45.05 L 137.83 -45.05 L 137.83 -3.96 Q 137.83 -2.33 136.67 -1.17 Q 135.5 0 133.8 0 L 133.8 0 Q 132.18 0 130.99 -1.17 Q 129.81 -2.33 129.81 -3.96 Z M 187.63 -4.03 L 187.63 -4.03 L 187.63 -55.33 Q 187.63 -56.95 188.8 -58.12 Q 189.96 -59.29 191.58 -59.29 L 191.58 -59.29 Q 193.21 -59.29 194.37 -58.12 Q 195.54 -56.95 195.54 -55.33 L 195.54 -55.33 L 195.54 -4.03 Q 195.54 -2.33 194.37 -1.17 Q 193.21 0 191.58 0 L 191.58 0 Q 189.96 0 188.8 -1.17 Q 187.63 -2.33 187.63 -4.03 Z M 204.04 -4.03 L 204.04 -4.03 L 204.04 -55.33 Q 204.04 -56.95 205.23 -58.14 L 205.23 -58.14 Q 206.38 -59.29 208.08 -59.29 L 208.08 -59.29 L 219.11 -59.29 Q 224.29 -59.29 228.48 -56.44 L 228.48 -56.44 Q 232.68 -53.59 234.65 -49.08 L 234.65 -49.08 Q 235.29 -47.46 235.62 -45.84 Q 235.96 -44.22 235.96 -42.52 L 235.96 -42.52 Q 235.96 -37.26 233.03 -33.14 L 233.03 -33.14 Q 232.48 -32.23 231.79 -31.42 Q 231.1 -30.61 230.34 -29.98 L 230.34 -29.98 Q 229.95 -29.58 229.87 -29.01 Q 229.79 -28.44 230.11 -28.04 L 230.11 -28.04 Q 232.36 -25.04 232.88 -21.48 L 232.88 -21.48 Q 233.11 -20.01 233.39 -18.04 Q 233.67 -16.06 233.96 -13.9 Q 234.26 -11.75 234.54 -9.77 Q 234.81 -7.79 235.05 -6.49 L 235.05 -6.49 L 235.29 -4.63 Q 235.33 -4.31 235.33 -4.03 L 235.33 -4.03 Q 235.33 -2.77 234.54 -1.66 L 234.54 -1.66 Q 233.51 -0.32 231.89 -0.08 L 231.89 -0.08 Q 231.73 0 231.33 0 L 231.33 0 Q 229.87 0 228.74 -0.97 Q 227.61 -1.94 227.34 -3.48 L 227.34 -3.48 Q 227.34 -3.56 227.06 -5.54 Q 226.78 -7.51 226.43 -10.24 Q 226.07 -12.97 225.66 -15.76 Q 225.24 -18.55 225 -20.33 L 225 -20.33 Q 224.61 -22.66 222.91 -24.13 L 222.91 -24.13 Q 221.13 -25.67 218.83 -25.67 L 218.83 -25.67 L 213.5 -25.67 Q 212.86 -25.67 212.45 -25.27 Q 212.03 -24.88 212.03 -24.21 L 212.03 -24.21 L 212.03 -4.03 Q 212.03 -2.33 210.86 -1.17 Q 209.7 0 208.08 0 L 208.08 0 Q 206.38 0 205.21 -1.17 Q 204.04 -2.33 204.04 -4.03 Z M 212.03 -49.91 L 212.03 -35.08 Q 212.03 -34.53 212.45 -34.11 Q 212.86 -33.7 213.5 -33.7 L 213.5 -33.7 L 218.83 -33.7 L 218.91 -33.7 L 219.03 -33.7 L 219.11 -33.7 Q 221.88 -33.7 224.02 -35.16 L 224.02 -35.16 Q 226.27 -36.62 227.26 -39.04 L 227.26 -39.04 Q 227.89 -40.82 227.93 -42.52 L 227.93 -42.52 Q 227.93 -45.13 226.47 -47.46 L 226.47 -47.46 Q 224.93 -49.64 222.59 -50.63 L 222.59 -50.63 Q 220.89 -51.34 219.11 -51.34 L 219.11 -51.34 L 213.5 -51.34 Q 212.86 -51.34 212.45 -50.94 Q 212.03 -50.55 212.03 -49.91 L 212.03 -49.91 Z" stroke-linecap="round" />
</g>
</svg>